<?xml version="1.0" encoding="UTF-8"?>
<svg xmlns="http://www.w3.org/2000/svg"
     width="859"
     height="1065"
     viewBox="0 0 859 1065"
     role="img"
     aria-labelledby="title desc">
  <title id="title">Logotipo IMSS dorado</title>
  <desc id="desc">Versión dorada del logotipo del Instituto Mexicano del Seguro Social.</desc>
  <path d="
      M 13 761 L 12 762 L 12 777 L 13 778 L 13 800 L 14 801 L 14 820 L 15 821 L 15 860 L 16 861 L 15 862 L 16 864 L 16 960 L 15 962 L 16 963 L 15 964 L 15 1003 L 14 1004 L 14 1022 L 13 1023 L 12 1043 L 13 1044 L 26 1044 L 27 1043 L 70 1043 L 71 1044 L 85 1044 L 86 1043 L 86 1030 L 85 1029 L 84 974 L 83 973 L 82 844 L 83 843 L 83 808 L 84 807 L 84 789 L 85 788 L 86 762 L 85 761 L 64 761 L 63 762 Z
      M 821 776 L 818 773 L 799 764 L 787 760 L 772 757 L 771 756 L 763 756 L 762 755 L 732 755 L 731 756 L 725 756 L 724 757 L 720 757 L 719 758 L 716 758 L 712 760 L 709 760 L 700 763 L 681 773 L 668 783 L 662 789 L 650 807 L 646 819 L 645 826 L 644 827 L 644 833 L 643 834 L 643 851 L 644 852 L 644 859 L 645 860 L 645 863 L 647 867 L 647 870 L 649 876 L 657 891 L 663 899 L 669 905 L 687 918 L 713 932 L 715 932 L 724 937 L 726 937 L 743 945 L 745 945 L 756 951 L 763 958 L 768 967 L 768 970 L 769 971 L 769 986 L 766 994 L 762 1000 L 757 1005 L 751 1009 L 745 1011 L 741 1011 L 740 1012 L 719 1012 L 718 1011 L 714 1011 L 713 1010 L 703 1008 L 689 1000 L 679 990 L 672 977 L 668 974 L 664 974 L 663 973 L 663 952 L 662 951 L 662 945 L 660 941 L 660 938 L 657 932 L 657 930 L 654 926 L 651 919 L 644 910 L 633 899 L 618 889 L 538 850 L 528 841 L 524 834 L 524 831 L 523 830 L 523 818 L 527 808 L 536 798 L 541 795 L 547 793 L 550 793 L 551 792 L 569 792 L 570 793 L 573 793 L 582 796 L 591 801 L 604 814 L 610 825 L 613 826 L 623 826 L 625 825 L 628 817 L 630 806 L 632 802 L 633 795 L 635 791 L 635 787 L 638 779 L 638 775 L 619 765 L 604 760 L 597 759 L 593 757 L 580 756 L 579 755 L 552 755 L 551 756 L 538 757 L 534 759 L 531 759 L 530 760 L 527 760 L 518 763 L 509 768 L 503 770 L 491 778 L 484 785 L 483 785 L 472 799 L 465 813 L 463 823 L 461 827 L 461 833 L 460 834 L 461 856 L 463 861 L 464 869 L 466 875 L 469 880 L 469 882 L 479 897 L 490 908 L 494 910 L 498 914 L 501 915 L 513 923 L 520 926 L 522 928 L 528 931 L 530 931 L 541 937 L 543 937 L 546 939 L 558 943 L 563 946 L 565 946 L 567 948 L 570 949 L 581 959 L 586 970 L 586 987 L 580 999 L 573 1006 L 566 1010 L 560 1011 L 559 1012 L 553 1012 L 552 1013 L 544 1013 L 543 1012 L 530 1011 L 526 1009 L 520 1008 L 506 1000 L 496 990 L 488 975 L 475 973 L 473 975 L 473 978 L 472 979 L 470 994 L 469 995 L 468 994 L 467 986 L 466 985 L 466 980 L 465 979 L 465 974 L 464 973 L 464 968 L 462 962 L 462 956 L 461 955 L 459 935 L 458 934 L 458 929 L 457 928 L 456 915 L 454 910 L 454 903 L 453 902 L 453 896 L 452 895 L 452 887 L 451 886 L 451 880 L 450 879 L 450 873 L 449 872 L 448 858 L 447 857 L 447 852 L 446 851 L 444 826 L 443 825 L 443 817 L 442 816 L 442 807 L 441 806 L 441 797 L 440 796 L 440 787 L 439 786 L 438 762 L 437 761 L 424 761 L 423 762 L 395 761 L 393 762 L 384 780 L 384 782 L 370 809 L 370 811 L 348 854 L 348 856 L 340 870 L 340 872 L 334 884 L 332 886 L 311 928 L 307 933 L 301 944 L 298 947 L 294 941 L 292 935 L 290 933 L 281 914 L 279 912 L 272 897 L 270 895 L 267 889 L 267 887 L 265 885 L 257 868 L 255 866 L 247 849 L 245 847 L 234 824 L 232 822 L 202 763 L 199 761 L 186 761 L 185 762 L 184 761 L 183 762 L 159 761 L 157 764 L 157 770 L 156 771 L 156 779 L 155 780 L 155 786 L 154 787 L 154 795 L 153 796 L 152 811 L 151 812 L 151 818 L 150 819 L 149 832 L 148 833 L 148 840 L 147 841 L 147 848 L 146 849 L 146 855 L 145 856 L 143 881 L 141 887 L 141 893 L 140 894 L 140 900 L 139 901 L 139 907 L 138 908 L 138 914 L 137 915 L 137 921 L 136 922 L 136 928 L 135 929 L 135 936 L 134 937 L 134 942 L 133 943 L 133 949 L 132 950 L 132 955 L 131 956 L 130 969 L 129 970 L 126 993 L 124 999 L 124 1004 L 122 1010 L 122 1015 L 121 1016 L 120 1025 L 117 1033 L 115 1044 L 123 1044 L 124 1043 L 155 1043 L 156 1044 L 164 1044 L 165 1042 L 166 1007 L 167 1006 L 167 996 L 168 995 L 168 985 L 169 984 L 169 974 L 170 973 L 170 961 L 171 960 L 171 946 L 172 945 L 173 924 L 174 923 L 174 915 L 175 914 L 175 908 L 176 907 L 176 901 L 177 900 L 177 892 L 178 891 L 179 877 L 181 873 L 189 889 L 191 891 L 205 920 L 207 922 L 216 941 L 218 943 L 220 949 L 222 951 L 229 966 L 231 968 L 233 974 L 235 976 L 245 997 L 250 1005 L 250 1007 L 252 1009 L 270 1044 L 275 1044 L 276 1043 L 292 1044 L 294 1042 L 301 1028 L 301 1026 L 304 1022 L 309 1012 L 309 1010 L 334 961 L 334 959 L 336 957 L 342 945 L 342 943 L 344 941 L 348 933 L 348 931 L 355 919 L 355 917 L 362 903 L 364 901 L 364 899 L 377 873 L 379 871 L 380 872 L 380 875 L 382 880 L 382 885 L 383 886 L 383 892 L 384 893 L 384 899 L 385 900 L 385 906 L 386 907 L 386 914 L 387 915 L 387 922 L 388 923 L 388 930 L 389 931 L 389 938 L 390 939 L 390 946 L 391 947 L 393 975 L 394 976 L 394 985 L 395 986 L 395 995 L 396 996 L 396 1008 L 397 1009 L 399 1044 L 407 1044 L 408 1043 L 466 1043 L 467 1044 L 476 1044 L 477 1043 L 476 1037 L 475 1036 L 475 1031 L 476 1030 L 481 1033 L 483 1033 L 488 1036 L 493 1037 L 501 1041 L 516 1046 L 519 1046 L 523 1048 L 526 1048 L 527 1049 L 531 1049 L 537 1051 L 542 1051 L 543 1052 L 565 1052 L 566 1051 L 573 1051 L 574 1050 L 580 1050 L 581 1049 L 591 1048 L 615 1040 L 617 1038 L 625 1034 L 634 1027 L 642 1019 L 645 1014 L 649 1010 L 650 1013 L 649 1014 L 649 1021 L 648 1023 L 651 1027 L 681 1040 L 699 1046 L 702 1046 L 705 1048 L 708 1048 L 709 1049 L 719 1050 L 720 1051 L 726 1051 L 727 1052 L 747 1052 L 748 1051 L 755 1051 L 756 1050 L 762 1050 L 763 1049 L 773 1048 L 777 1046 L 780 1046 L 781 1045 L 784 1045 L 793 1042 L 805 1036 L 813 1030 L 827 1016 L 838 999 L 838 997 L 843 987 L 844 979 L 845 978 L 845 973 L 846 972 L 846 953 L 845 952 L 845 947 L 844 946 L 844 942 L 843 941 L 842 935 L 831 915 L 827 910 L 813 897 L 797 887 L 744 861 L 742 861 L 718 848 L 708 837 L 706 831 L 706 818 L 710 807 L 720 797 L 733 792 L 751 792 L 752 793 L 760 794 L 763 796 L 765 796 L 775 802 L 785 812 L 793 825 L 799 825 L 800 826 L 807 825 L 809 823 L 811 812 L 813 808 L 813 805 L 816 797 L 816 794 L 819 786 Z
      M 80 52 L 68 67 L 58 86 L 58 89 L 56 92 L 52 104 L 52 108 L 50 114 L 50 119 L 49 120 L 49 126 L 48 127 L 47 148 L 46 149 L 46 156 L 45 157 L 44 180 L 43 181 L 41 235 L 40 236 L 39 266 L 38 267 L 38 295 L 37 296 L 37 455 L 38 456 L 37 457 L 38 458 L 38 484 L 39 485 L 39 501 L 40 502 L 40 517 L 41 518 L 41 533 L 42 534 L 43 569 L 44 570 L 44 581 L 45 582 L 45 591 L 46 592 L 46 598 L 47 599 L 49 621 L 50 622 L 50 626 L 52 631 L 53 639 L 55 643 L 56 650 L 60 662 L 67 676 L 73 685 L 81 694 L 92 703 L 100 708 L 110 713 L 122 717 L 130 718 L 134 720 L 143 721 L 149 723 L 155 723 L 156 724 L 162 724 L 163 725 L 170 725 L 171 726 L 179 726 L 180 727 L 199 728 L 200 729 L 217 729 L 218 730 L 276 730 L 277 731 L 356 731 L 357 732 L 358 731 L 359 732 L 474 732 L 475 731 L 476 732 L 477 731 L 511 731 L 512 730 L 573 729 L 574 728 L 610 727 L 611 726 L 630 726 L 631 725 L 632 726 L 633 725 L 675 724 L 676 723 L 691 723 L 692 722 L 710 721 L 711 720 L 716 720 L 721 718 L 726 718 L 730 716 L 737 715 L 746 711 L 748 711 L 751 709 L 753 709 L 766 702 L 774 696 L 774 695 L 782 688 L 792 674 L 800 657 L 804 645 L 808 626 L 809 625 L 810 615 L 811 614 L 811 606 L 812 605 L 813 583 L 814 582 L 814 574 L 815 573 L 815 565 L 816 564 L 816 556 L 817 555 L 817 545 L 818 544 L 819 513 L 820 512 L 820 482 L 821 481 L 821 310 L 820 309 L 820 266 L 819 265 L 819 235 L 818 234 L 817 195 L 816 194 L 816 181 L 815 180 L 814 159 L 813 158 L 813 150 L 812 149 L 812 142 L 811 141 L 811 135 L 810 134 L 809 123 L 808 122 L 808 118 L 806 113 L 806 109 L 805 108 L 805 104 L 802 96 L 802 93 L 796 80 L 796 78 L 789 66 L 776 51 L 761 40 L 747 33 L 732 28 L 729 28 L 728 27 L 724 27 L 723 26 L 714 25 L 713 24 L 708 24 L 707 23 L 699 23 L 698 22 L 672 21 L 671 20 L 652 20 L 651 19 L 629 19 L 628 18 L 577 17 L 576 16 L 558 16 L 557 15 L 525 14 L 524 13 L 503 13 L 502 12 L 413 12 L 412 13 L 391 13 L 390 14 L 388 13 L 387 14 L 310 14 L 309 15 L 308 14 L 305 14 L 304 15 L 303 14 L 225 15 L 224 16 L 204 16 L 203 17 L 189 17 L 188 18 L 167 19 L 166 20 L 159 20 L 158 21 L 152 21 L 151 22 L 137 24 L 136 25 L 125 27 L 107 33 L 90 43 Z
      M 130 352 L 131 351 L 146 351 L 147 350 L 193 350 L 194 351 L 195 350 L 196 351 L 208 351 L 209 352 L 221 352 L 222 353 L 235 353 L 236 354 L 255 355 L 256 356 L 272 357 L 273 358 L 278 358 L 279 359 L 286 360 L 300 366 L 305 370 L 310 376 L 313 382 L 315 395 L 314 396 L 314 402 L 313 403 L 312 410 L 308 418 L 309 421 L 328 411 L 330 411 L 333 409 L 345 405 L 357 404 L 358 403 L 383 403 L 384 404 L 400 406 L 403 408 L 406 408 L 415 412 L 417 412 L 449 429 L 468 443 L 489 465 L 499 479 L 505 491 L 507 493 L 507 495 L 512 504 L 513 509 L 515 512 L 520 527 L 521 535 L 523 540 L 523 546 L 524 547 L 524 555 L 525 556 L 525 587 L 524 588 L 524 596 L 523 597 L 523 603 L 522 604 L 522 609 L 520 614 L 520 618 L 516 630 L 514 633 L 514 635 L 508 647 L 497 663 L 479 680 L 468 687 L 450 695 L 440 697 L 439 698 L 435 698 L 430 700 L 418 701 L 417 702 L 410 702 L 409 703 L 389 703 L 388 704 L 341 702 L 340 701 L 325 700 L 324 699 L 320 699 L 319 698 L 306 696 L 300 693 L 290 690 L 278 684 L 264 675 L 254 667 L 237 651 L 227 639 L 218 626 L 210 611 L 208 609 L 197 587 L 195 580 L 192 575 L 192 573 L 186 560 L 176 529 L 173 523 L 173 520 L 168 507 L 168 504 L 165 498 L 165 495 L 162 488 L 162 485 L 158 475 L 158 472 L 156 468 L 156 465 L 150 447 L 150 444 L 149 443 L 144 420 L 141 412 L 141 408 L 140 407 L 139 398 L 136 389 L 136 385 L 134 381 L 134 376 L 133 375 L 131 359 L 130 358 Z
      M 347 417 L 338 420 L 329 425 L 322 431 L 314 443 L 312 449 L 312 453 L 311 454 L 311 464 L 312 465 L 312 469 L 313 470 L 313 473 L 314 474 L 314 477 L 315 478 L 315 481 L 316 482 L 316 485 L 317 486 L 317 489 L 320 498 L 320 504 L 321 505 L 320 516 L 317 525 L 314 530 L 314 532 L 309 540 L 304 551 L 302 553 L 294 570 L 292 572 L 292 574 L 288 582 L 288 585 L 290 585 L 296 578 L 303 574 L 309 573 L 310 572 L 321 572 L 322 573 L 325 573 L 332 577 L 341 587 L 349 588 L 353 592 L 355 597 L 355 600 L 358 601 L 359 594 L 358 593 L 358 589 L 356 586 L 356 584 L 349 577 L 348 577 L 344 572 L 344 566 L 349 559 L 348 555 L 345 554 L 340 559 L 333 561 L 322 557 L 314 557 L 313 556 L 314 552 L 318 544 L 321 541 L 323 537 L 332 528 L 333 528 L 334 526 L 349 518 L 355 516 L 365 515 L 366 514 L 381 513 L 390 510 L 397 506 L 406 497 L 410 491 L 410 489 L 408 488 L 402 494 L 390 501 L 384 503 L 375 503 L 371 501 L 364 500 L 353 495 L 346 490 L 338 482 L 332 474 L 332 472 L 329 468 L 329 466 L 326 460 L 326 452 L 328 449 L 329 445 L 336 437 L 343 433 L 349 432 L 350 431 L 355 431 L 356 430 L 376 434 L 385 437 L 388 439 L 390 439 L 401 445 L 418 458 L 431 471 L 437 479 L 447 497 L 447 499 L 449 502 L 452 511 L 452 515 L 454 520 L 456 543 L 455 544 L 455 558 L 453 563 L 453 567 L 448 582 L 444 589 L 444 591 L 439 599 L 430 608 L 420 614 L 411 617 L 400 618 L 399 617 L 386 616 L 374 612 L 357 612 L 345 616 L 338 620 L 335 623 L 325 627 L 313 627 L 312 626 L 306 625 L 302 623 L 292 614 L 292 624 L 294 630 L 296 632 L 297 635 L 305 643 L 316 648 L 320 648 L 321 649 L 330 648 L 339 644 L 343 641 L 349 639 L 356 639 L 357 641 L 349 647 L 349 652 L 352 654 L 361 655 L 362 654 L 378 653 L 379 652 L 380 653 L 381 652 L 388 652 L 389 653 L 389 655 L 386 658 L 374 665 L 371 665 L 370 666 L 359 666 L 357 665 L 356 668 L 364 671 L 367 671 L 371 673 L 381 674 L 382 675 L 403 675 L 404 674 L 408 674 L 409 673 L 412 673 L 421 670 L 429 666 L 431 666 L 442 659 L 452 649 L 467 627 L 475 610 L 480 595 L 480 592 L 482 587 L 482 583 L 483 582 L 483 575 L 484 574 L 484 542 L 483 541 L 482 528 L 481 527 L 481 524 L 480 523 L 480 520 L 479 519 L 479 516 L 476 507 L 467 487 L 460 477 L 459 474 L 449 461 L 433 445 L 413 431 L 399 424 L 397 424 L 394 422 L 392 422 L 383 418 L 379 418 L 373 416 L 352 416 L 351 417 Z
      M 702 60 L 705 62 L 707 62 L 709 64 L 716 67 L 720 70 L 733 83 L 744 101 L 744 103 L 746 106 L 751 121 L 752 129 L 753 130 L 753 135 L 754 136 L 755 158 L 756 159 L 756 185 L 757 186 L 756 232 L 755 233 L 755 244 L 754 245 L 754 256 L 753 257 L 752 277 L 751 278 L 751 286 L 750 287 L 748 309 L 747 310 L 747 316 L 746 317 L 746 323 L 745 324 L 745 332 L 744 333 L 743 344 L 742 345 L 742 349 L 740 355 L 740 360 L 739 361 L 739 365 L 738 366 L 735 385 L 732 394 L 731 403 L 730 404 L 730 407 L 727 416 L 727 420 L 726 421 L 726 424 L 723 433 L 723 437 L 722 438 L 722 441 L 719 450 L 719 454 L 717 457 L 717 460 L 714 468 L 712 479 L 694 533 L 692 536 L 687 553 L 684 558 L 680 571 L 677 576 L 677 578 L 674 583 L 671 592 L 655 623 L 641 642 L 619 663 L 607 671 L 602 673 L 600 675 L 596 676 L 594 678 L 592 678 L 582 683 L 561 690 L 558 690 L 553 692 L 549 692 L 544 694 L 540 694 L 539 695 L 523 696 L 520 697 L 519 695 L 523 690 L 524 687 L 537 667 L 548 645 L 549 640 L 552 635 L 557 620 L 557 617 L 559 612 L 559 608 L 561 603 L 562 587 L 563 586 L 563 567 L 562 566 L 562 557 L 561 556 L 560 544 L 559 543 L 559 539 L 558 538 L 558 534 L 557 533 L 557 529 L 554 521 L 554 518 L 550 506 L 548 503 L 547 498 L 545 495 L 545 493 L 535 473 L 515 443 L 509 437 L 503 429 L 483 409 L 457 388 L 432 372 L 399 355 L 392 353 L 385 349 L 375 346 L 372 344 L 369 344 L 356 339 L 353 339 L 352 338 L 349 338 L 340 335 L 331 334 L 326 332 L 322 332 L 321 331 L 316 331 L 310 329 L 305 329 L 304 328 L 299 328 L 298 327 L 292 327 L 291 326 L 286 326 L 285 325 L 279 325 L 278 324 L 269 324 L 268 323 L 260 323 L 259 322 L 248 322 L 247 321 L 220 320 L 219 319 L 186 318 L 185 317 L 130 316 L 129 317 L 123 317 L 111 323 L 107 328 L 98 311 L 98 309 L 95 303 L 95 299 L 98 292 L 102 288 L 111 284 L 113 282 L 115 282 L 117 280 L 125 276 L 132 276 L 136 278 L 155 294 L 157 294 L 167 286 L 185 274 L 196 265 L 176 265 L 175 264 L 148 264 L 147 265 L 142 265 L 141 263 L 143 261 L 159 253 L 166 251 L 176 246 L 182 245 L 183 244 L 188 244 L 189 243 L 196 243 L 197 242 L 206 242 L 207 241 L 242 241 L 243 242 L 292 241 L 293 240 L 303 240 L 304 239 L 320 238 L 321 237 L 328 237 L 329 236 L 336 236 L 337 235 L 345 235 L 346 234 L 347 236 L 340 243 L 340 244 L 322 261 L 304 274 L 281 287 L 281 289 L 282 290 L 287 289 L 297 285 L 300 285 L 309 282 L 317 278 L 331 274 L 349 265 L 351 265 L 357 261 L 379 250 L 387 244 L 392 242 L 403 234 L 406 233 L 409 230 L 412 229 L 421 222 L 453 201 L 460 195 L 464 193 L 479 181 L 495 170 L 519 150 L 544 131 L 549 126 L 554 123 L 559 118 L 564 115 L 569 110 L 574 107 L 589 94 L 616 75 L 631 67 L 633 67 L 643 62 L 649 60 L 652 60 L 653 59 L 656 59 L 657 58 L 661 58 L 662 57 L 681 56 L 682 57 L 690 57 L 691 58 Z
      M 564 165 L 541 185 L 536 188 L 527 196 L 489 225 L 468 244 L 461 258 L 461 261 L 460 262 L 460 272 L 461 273 L 461 277 L 464 286 L 469 296 L 480 313 L 496 334 L 499 340 L 504 346 L 505 349 L 513 360 L 514 363 L 522 375 L 524 380 L 529 387 L 529 389 L 532 393 L 543 415 L 545 422 L 552 436 L 557 451 L 560 456 L 565 473 L 568 479 L 568 482 L 570 486 L 570 489 L 572 493 L 572 496 L 573 497 L 573 500 L 575 504 L 575 508 L 577 513 L 577 517 L 579 523 L 579 528 L 581 534 L 581 539 L 583 544 L 584 556 L 586 557 L 588 554 L 589 540 L 590 539 L 591 499 L 590 498 L 590 485 L 589 484 L 588 470 L 587 469 L 584 450 L 582 446 L 580 432 L 579 431 L 576 417 L 574 414 L 574 411 L 568 393 L 561 378 L 561 376 L 541 336 L 539 334 L 538 330 L 536 328 L 528 311 L 526 309 L 523 300 L 521 297 L 517 285 L 516 270 L 515 269 L 516 251 L 517 250 L 517 246 L 521 234 L 527 222 L 542 199 L 546 195 L 548 191 L 566 168 L 566 166 Z
      M 121 102 L 125 93 L 132 82 L 146 68 L 160 60 L 170 58 L 171 57 L 175 57 L 176 56 L 195 56 L 196 57 L 200 57 L 208 60 L 211 60 L 227 68 L 233 73 L 240 77 L 244 81 L 248 83 L 268 98 L 285 112 L 293 117 L 298 122 L 302 124 L 352 165 L 387 198 L 388 198 L 391 202 L 390 203 L 365 205 L 364 206 L 355 206 L 354 207 L 345 207 L 344 208 L 333 208 L 332 209 L 320 209 L 319 210 L 309 210 L 308 211 L 296 211 L 295 212 L 271 212 L 270 213 L 195 213 L 194 214 L 177 215 L 176 216 L 172 216 L 171 217 L 164 218 L 158 220 L 153 223 L 151 223 L 131 234 L 121 243 L 117 245 L 116 244 L 116 225 L 115 224 L 115 177 L 114 176 L 114 168 L 115 167 L 115 128 L 116 127 L 117 115 L 118 114 L 118 111 Z
  "
  fill="#D39A16"
  fill-rule="evenodd"
  clip-rule="evenodd"/>
</svg>
